<?xml version="1.0" encoding="utf-8"?>
<svg xmlns="http://www.w3.org/2000/svg" id="Capa_2" data-name="Capa 2" viewBox="0 0 115 34">
  <defs>
    <style>
      .cls-1 {
        fill: none;
      }

      .cls-2 {
        fill: #010202;
      }
    </style>
  </defs>
  <g id="Capa_1-2" data-name="Capa 1">
    <g>
      <rect class="cls-1" width="115" height="34"/>
      <g id="Capa_2-2" data-name="Capa 2">
        <g id="Original">
          <polygon class="cls-2" points="59.01 22.8 58.8 22.56 58.8 13.29 55.33 13.29 55.11 13.03 55.12 11.42 55.33 11.2 64.53 11.2 64.74 11.44 64.74 13.05 64.53 13.29 61.05 13.29 61.05 22.58 60.85 22.8 59.01 22.8"/>
          <path class="cls-2" d="M18.48,22.8l-.21-.24v-11.13l.21-.24h4.16c3.57,0,6.16,2.42,6.16,5.77v.03c0,3.36-2.59,5.8-6.16,5.8h-4.16ZM20.5,20.75h2.14c2.29,0,3.82-1.49,3.82-3.72v-.03c-.01-2.21-1.58-3.76-3.82-3.76h-2.13v7.5Z"/>
          <polygon class="cls-2" points="51.2 22.8 47.28 17.81 45.56 19.48 45.56 22.56 45.35 22.8 43.53 22.8 43.31 22.55 43.32 11.44 43.53 11.2 45.35 11.2 45.56 11.44 45.56 16.74 51.07 11.2 53.88 11.2 53.88 11.49 48.85 16.33 53.89 22.58 53.88 22.8 51.2 22.8"/>
          <path class="cls-2" d="M71.93,23c-3.45,0-6.05-2.56-6.05-5.97v-.03c-.01-3.3,2.65-5.99,5.95-6,.04,0,.09,0,.13,0,3.45,0,6.04,2.56,6.04,5.97v.03c.01,3.3-2.65,5.99-5.95,6-.04,0-.08,0-.13,0M71.92,13.08c-2.12,0-3.71,1.67-3.71,3.89v.03c0,2.22,1.61,3.9,3.75,3.9s3.71-1.66,3.71-3.86v-.03c0-2.24-1.61-3.92-3.75-3.92"/>
          <polygon class="cls-2" points="89.04 22.8 82.96 14.93 82.96 22.56 82.75 22.8 80.97 22.8 80.75 22.55 80.76 11.42 80.97 11.2 82.79 11.2 88.7 18.84 88.7 11.44 88.91 11.2 90.69 11.2 90.9 11.44 90.9 22.56 90.69 22.8 89.04 22.8"/>
          <polygon class="cls-2" points="35.36 18.01 35.15 17.77 35.15 16.22 35.36 15.98 38.34 15.98 38.55 16.22 38.55 17.77 38.34 18.01 35.36 18.01"/>
          <polygon class="cls-2" points="31.71 22.8 31.5 22.56 31.5 11.44 31.71 11.2 40.05 11.2 40.26 11.44 40.26 12.98 40.05 13.22 33.73 13.22 33.73 20.78 40.11 20.78 40.32 21.02 40.32 22.56 40.11 22.8 31.71 22.8"/>
          <path class="cls-2" d="M96.73,12.68c0,.82-.66,1.48-1.48,1.48s-1.48-.66-1.48-1.48.66-1.48,1.48-1.48c.81,0,1.48.65,1.48,1.47,0,0,0,0,0,.01ZM96.54,12.68c0-.71-.58-1.29-1.29-1.29s-1.29.58-1.29,1.29.58,1.29,1.29,1.29,1.29-.58,1.29-1.29ZM95.86,13.44h-.21l-.32-.62h-.39v.62h-.18v-1.52h.53c.27-.02.5.18.51.45,0,0,0,0,0,0,0,.18-.12.35-.29.41l.34.66ZM94.94,12.63h.35c.23,0,.33-.1.33-.27s-.1-.27-.33-.27h-.35v.53Z"/>
        </g>
      </g>
    </g>
  </g>
</svg>