<?xml version="1.0" encoding="UTF-8"?> <svg xmlns="http://www.w3.org/2000/svg" width="80" height="16" viewBox="0 0 80 25" fill="none"><path d="M29.6 17.7778L30.4778 18.0444L30.0333 22.5333C28.3111 23.7333 26.1222 24.4333 23.5667 24.4333C16.9444 24.4333 12.8111 19.7333 12.8111 13.9333C12.8111 8.13333 16.9444 3.43333 23.5667 3.43333C26.1778 3.43333 28.3778 4.14444 30.1333 5.41111L30.5667 9.75556L29.5778 10.0556C28.6444 7.22222 26.6 5.27778 23.5556 5.27778C19.2667 5.27778 16.9556 9.15556 16.9556 13.9444C16.9556 18.7333 19.2667 22.6111 23.5556 22.6111C26.6 22.6111 28.6556 20.6444 29.5889 17.7889L29.6 17.7778ZM10.2556 1.21111V0C10.2556 0 9.86667 0.155556 6.91111 0.155556C3.95555 0.155556 3.56667 0 3.56667 0V1.21111C3.56667 1.21111 3.95555 1.05556 6.91111 1.05556C9.86667 1.05556 10.2556 1.21111 10.2556 1.21111ZM4.72222 21.9444V15.4H6.25556L10.3556 15.8C10.3556 15.8 10.2778 14.4556 10.2778 13.9222C10.2778 13.3778 10.3556 12.0333 10.3556 12.0333L6.25556 12.4444H4.72222V5.9C6.35556 5.9 8.74444 5.94444 9.31111 6C10.0778 6.15556 13.8222 7.11111 13.8222 7.11111L13.4111 3.82222H0C0 3.82222 0.711112 4.98889 0.711112 13.9222C0.711112 22.8556 0 24.0222 0 24.0222H13.4111L13.8222 20.7333C13.8222 20.7333 10.0667 21.6889 9.31111 21.8444C8.75556 21.9 6.36667 21.9556 4.72222 21.9444ZM76.4111 18.2889C76.4111 22.1444 73.6111 24.4333 68.9222 24.4333C67 24.4333 64.9445 24.0444 63.1445 23.3111L62.9 23.2333L62.4111 19.1222C60.7222 22.3111 57.3778 24.4556 52.9 24.4556C49.9 24.4556 47.4222 23.4889 45.5889 21.9L45.3222 24.0444H31.9111C31.9111 24.0444 32.6222 22.8778 32.6222 13.9444C32.6222 5.01111 31.9111 3.84444 31.9111 3.84444H37.3444C37.3444 3.84444 36.6333 5.01111 36.6333 13.9444C36.6333 18.0333 36.7889 20.5 36.9444 21.9667C38.5778 21.9667 40.6667 21.9222 41.2222 21.8667C41.7222 21.7667 43.5222 21.3111 44.7 21.0222C43.0556 19.1556 42.1444 16.6778 42.1444 13.9667C42.1444 8.16667 46.2778 3.46667 52.9 3.46667C57.8556 3.46667 61.4222 6.1 62.9 9.86667C62.8778 9.63333 62.8556 9.38889 62.8556 9.13333C62.8556 5.58889 65.4889 3.47778 69.9 3.47778C71.3778 3.47778 72.8667 3.72222 74.3 4.21111L74.7333 8.6L73.7445 8.9C72.1667 6.12222 70.5556 4.76667 68.8222 4.76667C67.3111 4.76667 66.3444 5.73333 66.3444 7.22222C66.3444 8.56667 67.2222 9.62222 69.1 10.5444L70.8556 11.4222C73.5333 12.7222 76.4 14.4333 76.4 18.3222L76.4111 18.2889ZM59.5111 13.9444C59.5111 9.15556 57.2 5.27778 52.9111 5.27778C48.6222 5.27778 46.3111 9.15556 46.3111 13.9444C46.3111 18.7333 48.6222 22.6111 52.9111 22.6111C57.2 22.6111 59.5111 18.7333 59.5111 13.9444ZM72.7333 20.1222C72.7333 18.0667 71.1444 16.9111 68.5778 15.7111C66.6889 14.7889 64.4556 13.7111 63.4333 11.6444C63.5778 12.3778 63.6556 13.1444 63.6556 13.9333C63.6556 15.4889 63.3556 16.9556 62.8 18.2889L63.2111 18.9556C65.2556 22.0333 67.6111 23.1556 69.6667 23.1556C71.1889 23.1556 72.7333 22.2111 72.7333 20.1111V20.1222ZM79.8667 4.48889C79.7778 4.27778 79.6556 4.1 79.5111 3.94444C79.3556 3.78889 79.1778 3.66667 78.9667 3.57778C78.7556 3.48889 78.5333 3.44444 78.2889 3.44444C78.0444 3.44444 77.8222 3.48889 77.6111 3.57778C77.4 3.66667 77.2222 3.78889 77.0667 3.94444C76.9111 4.1 76.7889 4.27778 76.7111 4.48889C76.6222 4.7 76.5778 4.92222 76.5778 5.15556C76.5778 5.38889 76.6222 5.62222 76.7111 5.82222C76.8 6.03333 76.9222 6.21111 77.0667 6.35556C77.2222 6.51111 77.4 6.63333 77.6111 6.71111C77.8222 6.78889 78.0444 6.84444 78.2889 6.84444C78.5333 6.84444 78.7556 6.8 78.9667 6.71111C79.1778 6.62222 79.3556 6.5 79.5111 6.35556C79.6667 6.2 79.7889 6.02222 79.8667 5.82222C79.9556 5.61111 80 5.38889 80 5.15556C80 4.92222 79.9556 4.7 79.8667 4.48889ZM79.6222 5.73333C79.5444 5.91111 79.4445 6.06667 79.3222 6.2C79.1889 6.33333 79.0444 6.43333 78.8667 6.51111C78.6889 6.58889 78.5 6.62222 78.3 6.62222C78.1 6.62222 77.9 6.58889 77.7222 6.51111C77.5444 6.43333 77.4 6.33333 77.2667 6.2C77.1333 6.06667 77.0333 5.91111 76.9667 5.73333C76.9 5.55555 76.8556 5.36667 76.8556 5.15556C76.8556 4.94444 76.8889 4.75556 76.9667 4.57778C77.0333 4.4 77.1333 4.24444 77.2667 4.11111C77.4 3.97778 77.5444 3.87778 77.7222 3.8C77.9 3.72222 78.0889 3.68889 78.3 3.68889C78.5111 3.68889 78.7 3.72222 78.8667 3.8C79.0444 3.87778 79.1889 3.97778 79.3222 4.11111C79.4556 4.24444 79.5556 4.4 79.6222 4.57778C79.7 4.75556 79.7333 4.94444 79.7333 5.15556C79.7333 5.36667 79.7 5.55555 79.6222 5.73333ZM78.7667 5.21111C78.8222 5.18889 78.8778 5.15556 78.9222 5.11111C78.9667 5.06667 79 5.01111 79.0333 4.94444C79.0556 4.87778 79.0667 4.8 79.0667 4.72222C79.0667 4.54444 79.0111 4.41111 78.9111 4.32222C78.8111 4.23333 78.6444 4.17778 78.4222 4.17778H77.6667V6.14444H77.9111V5.26667H78.3222L78.8778 6.14444H79.1667L78.5778 5.26667C78.6444 5.25556 78.7111 5.23333 78.7667 5.21111ZM78.2444 5.06667H77.9222V4.38889H78.3667C78.4222 4.38889 78.4889 4.38889 78.5444 4.4C78.6 4.4 78.6444 4.42222 78.6889 4.45556C78.7333 4.47778 78.7667 4.51111 78.7889 4.55556C78.8111 4.6 78.8222 4.65556 78.8222 4.72222C78.8222 4.8 78.8 4.86667 78.7667 4.92222C78.7333 4.96667 78.6889 5 78.6333 5.02222C78.5778 5.04444 78.5111 5.05556 78.4444 5.06667C78.3778 5.06667 78.3 5.06667 78.2222 5.06667H78.2444Z" fill="#3C3C3B"></path></svg> 