<?xml version="1.0" encoding="utf-8"?>
<svg xmlns="http://www.w3.org/2000/svg" id="EARTHIC_LAB" data-name="EARTHIC LAB" width="599.218" height="118.899" viewBox="0 0 599.218 118.899">
  <g id="COSENTINOFORMAFANTASMA" transform="translate(69.858 96.659)" style="mix-blend-mode: normal;isolation: isolate">
    <g id="Grupo_2439" data-name="Grupo 2439" style="mix-blend-mode: normal;isolation: isolate">
      <path id="Trazado_10255" data-name="Trazado 10255" d="M52.148,83.244c0-6.808,2.772-11.089,7.792-11.089,3.912,0,6.531,2.648,7.208,7.178H64.1c-.555-3.112-1.878-4.406-4.158-4.406-3.3,0-4.805,2.927-4.805,8.35,0,5.389,1.571,8.347,4.805,8.347,2.342,0,3.636-1.356,4.158-4.652h3.019c-.647,4.714-3.2,7.424-7.178,7.424C54.889,94.4,52.148,90.175,52.148,83.244Z" transform="translate(-52.148 -72.155)" fill="#193028"/>
      <path id="Trazado_10256" data-name="Trazado 10256" d="M65.579,83.244c0-6.685,2.742-11.089,7.825-11.089s7.825,4.4,7.825,11.089c0,6.777-2.681,11.151-7.825,11.151S65.579,90.021,65.579,83.244ZM73.4,91.623c3.357,0,4.836-3.019,4.836-8.347s-1.479-8.35-4.836-8.35-4.836,3.019-4.836,8.35S70.047,91.623,73.4,91.623Z" transform="translate(-47.587 -72.155)" fill="#193028"/>
      <path id="Trazado_10257" data-name="Trazado 10257" d="M79.494,87.372h2.989c.216,2.865,1.91,4.437,5.082,4.437,2.833,0,4.5-1.232,4.5-3.6,0-1.909-1.048-2.618-4.1-3.511l-2.28-.678c-3.973-1.171-5.606-2.8-5.606-5.945,0-3.634,2.742-5.914,6.993-5.914,3.942,0,6.962,1.879,7.424,6.469H91.508c-.37-2.772-2.034-3.882-4.374-3.882-2.588,0-4.066,1.14-4.066,3.2,0,1.849,1.048,2.681,3.7,3.45l2.249.648c4.281,1.232,6.038,2.895,6.038,6.067,0,3.881-2.9,6.284-7.486,6.284C82.822,94.4,79.74,92.024,79.494,87.372Z" transform="translate(-42.861 -72.155)" fill="#193028"/>
      <path id="Trazado_10258" data-name="Trazado 10258" d="M94.306,72.408h13.061V75.18H97.293v6.346h8.564V84.3H97.293v6.9h10.413V93.97h-13.4Z" transform="translate(-37.831 -72.069)" fill="#193028"/>
      <path id="Trazado_10259" data-name="Trazado 10259" d="M107.807,72.408h3.172l7.486,16.048V72.408h2.773V93.97h-3.2l-7.455-15.987V93.97h-2.772Z" transform="translate(-33.246 -72.069)" fill="#193028"/>
      <path id="Trazado_10260" data-name="Trazado 10260" d="M127.132,75.18h-6.377V72.408H136.5V75.18H130.12V93.97h-2.987Z" transform="translate(-28.848 -72.069)" fill="#193028"/>
      <path id="Trazado_10261" data-name="Trazado 10261" d="M135.544,91.26H140.6V75.118h-5.053v-2.71h13.061v2.71h-5.021V91.26h5.021v2.71H135.544Z" transform="translate(-23.826 -72.069)" fill="#193028"/>
      <path id="Trazado_10262" data-name="Trazado 10262" d="M149.206,72.408h3.172l7.486,16.048V72.408h2.773V93.97h-3.2l-7.454-15.987V93.97h-2.773Z" transform="translate(-19.187 -72.069)" fill="#193028"/>
      <path id="Trazado_10263" data-name="Trazado 10263" d="M162.178,83.244c0-6.685,2.742-11.089,7.825-11.089s7.825,4.4,7.825,11.089c0,6.777-2.681,11.151-7.825,11.151S162.178,90.021,162.178,83.244ZM170,91.623c3.357,0,4.836-3.019,4.836-8.347s-1.479-8.35-4.836-8.35-4.837,3.019-4.837,8.35S166.644,91.623,170,91.623Z" transform="translate(-14.781 -72.155)" fill="#193028"/>
      <path id="Trazado_10264" data-name="Trazado 10264" d="M195.878,82.758,189.9,72.408h3.357l4.559,8.04,4.529-8.04h3.2l-5.976,10.411,6.469,11.151h-3.358l-5.052-8.84-5.021,8.84h-3.2Z" transform="translate(-5.533 -72.069)" fill="#193028"/>
      <path id="Trazado_10265" data-name="Trazado 10265" d="M219.01,72.408h12.476V75.18H222v6.87h8.563v2.773H222V93.97H219.01Z" transform="translate(4.519 -72.069)" fill="#193028"/>
      <path id="Trazado_10266" data-name="Trazado 10266" d="M231.176,83.244c0-6.685,2.742-11.089,7.826-11.089s7.823,4.4,7.823,11.089c0,6.777-2.679,11.151-7.823,11.151S231.176,90.021,231.176,83.244ZM239,91.623c3.357,0,4.836-3.019,4.836-8.347s-1.479-8.35-4.836-8.35-4.837,3.019-4.837,8.35S235.644,91.623,239,91.623Z" transform="translate(8.651 -72.155)" fill="#193028"/>
      <path id="Trazado_10267" data-name="Trazado 10267" d="M245.942,72.408h7.025c4.158,0,6.837,2.619,6.837,6.685a6.187,6.187,0,0,1-4.466,6.346l4.868,8.532h-3.358l-4.559-8.162h-3.358V93.97h-2.989Zm7.025,10.627c2.494,0,3.819-1.386,3.819-3.942,0-2.526-1.325-3.913-3.819-3.913h-4.036v7.855Z" transform="translate(13.666 -72.069)" fill="#193028"/>
      <path id="Trazado_10268" data-name="Trazado 10268" d="M259.1,72.408h3.329l4.126,10.505,4.129-10.505h3.2V93.97H271.2V77.244l-3.819,9.735H265.6l-3.819-9.735V93.97H259.1Z" transform="translate(18.133 -72.069)" fill="#193028"/>
      <path id="Trazado_10269" data-name="Trazado 10269" d="M278.725,72.408h3.727l6.623,21.562h-3.05L284.3,88.179h-7.517l-1.725,5.791h-2.987ZM283.5,85.469l-2.958-10.042-2.958,10.042Z" transform="translate(22.539 -72.069)" fill="#193028"/>
      <path id="Trazado_10270" data-name="Trazado 10270" d="M288.008,72.408h12.476V75.18H291v6.87h8.564v2.773H291V93.97h-2.989Z" transform="translate(27.951 -72.069)" fill="#193028"/>
      <path id="Trazado_10271" data-name="Trazado 10271" d="M306.324,72.408h3.727l6.623,21.562h-3.049L311.9,88.179h-7.515l-1.725,5.791H299.67ZM311.1,85.469,308.14,75.427l-2.957,10.042Z" transform="translate(31.912 -72.069)" fill="#193028"/>
      <path id="Trazado_10272" data-name="Trazado 10272" d="M314.8,72.408h3.174l7.484,16.048V72.408h2.773V93.97h-3.2l-7.455-15.987V93.97H314.8Z" transform="translate(37.051 -72.069)" fill="#193028"/>
      <path id="Trazado_10273" data-name="Trazado 10273" d="M334.128,75.18h-6.375V72.408h15.74V75.18h-6.377V93.97h-2.989Z" transform="translate(41.449 -72.069)" fill="#193028"/>
      <path id="Trazado_10274" data-name="Trazado 10274" d="M347.723,72.408h3.728l6.622,21.562h-3.049L353.3,88.179h-7.515l-1.727,5.791h-2.987ZM352.5,85.469l-2.956-10.042-2.958,10.042Z" transform="translate(45.971 -72.069)" fill="#193028"/>
      <path id="Trazado_10275" data-name="Trazado 10275" d="M355.49,87.372h2.987c.217,2.865,1.91,4.437,5.082,4.437,2.835,0,4.5-1.232,4.5-3.6,0-1.909-1.048-2.618-4.1-3.511l-2.279-.678c-3.975-1.171-5.608-2.8-5.608-5.945,0-3.634,2.742-5.914,6.994-5.914,3.942,0,6.961,1.879,7.423,6.469H367.5c-.37-2.772-2.034-3.882-4.375-3.882-2.588,0-4.066,1.14-4.066,3.2,0,1.849,1.047,2.681,3.7,3.45l2.248.648c4.283,1.232,6.038,2.895,6.038,6.067,0,3.881-2.9,6.284-7.486,6.284C358.816,94.4,355.736,92.024,355.49,87.372Z" transform="translate(50.869 -72.155)" fill="#193028"/>
      <path id="Trazado_10276" data-name="Trazado 10276" d="M369.5,72.408h3.326l4.127,10.505,4.129-10.505h3.2V93.97H381.6V77.244l-3.821,9.735H376l-3.819-9.735V93.97H369.5Z" transform="translate(55.626 -72.069)" fill="#193028"/>
      <path id="Trazado_10277" data-name="Trazado 10277" d="M389.123,72.408h3.725l6.624,21.562h-3.05L394.7,88.179h-7.515l-1.725,5.791h-2.989ZM393.9,85.469,390.94,75.427l-2.956,10.042Z" transform="translate(60.031 -72.069)" fill="#193028"/>
    </g>
  </g>
  <g id="Grupo_612" data-name="Grupo 612" transform="translate(0 0)">
    <g id="Grupo_594" data-name="Grupo 594" transform="translate(438.608 1.409)">
      <path id="Trazado_9807" data-name="Trazado 9807" d="M412.148,66.844h10.071L402.656,1.053H385.483L365.925,66.844H376l6.121-21.568h23.915ZM384.512,36.815,394.07,3.127l9.557,33.688Z" transform="translate(-314.338 -1.052)" fill="#193028"/>
      <path id="Trazado_9808" data-name="Trazado 9808" d="M327.416,66.844V1.052h9.827V57.727h32.418v9.117Z" transform="translate(-327.416 -1.052)" fill="#193028"/>
      <path id="Trazado_9809" data-name="Trazado 9809" d="M415.1,66.836V1.062h20.3a28.211,28.211,0,0,1,10.851,1.926,15.49,15.49,0,0,1,7.19,5.727,16.839,16.839,0,0,1,2.539,9.541,14.728,14.728,0,0,1-2.772,9.066,14.144,14.144,0,0,1-7.1,5.123,17.5,17.5,0,0,1,8.882,5.171q3.241,3.661,3.24,10.241a19.125,19.125,0,0,1-2.813,10.807,16.283,16.283,0,0,1-7.941,6.2,33.272,33.272,0,0,1-11.985,1.969Zm9.109-38.062h11.464a13.519,13.519,0,0,0,7.989-2.256q3.2-2.257,3.194-7.7,0-5.263-3.148-7.38a14.141,14.141,0,0,0-8.038-2.114H424.208Zm0,29.791h11.184a23.086,23.086,0,0,0,7.1-.987,9.605,9.605,0,0,0,4.843-3.334,10.333,10.333,0,0,0,1.784-6.391,10.674,10.674,0,0,0-1.784-6.58,9.371,9.371,0,0,0-4.843-3.287,24.184,24.184,0,0,0-7.1-.938H424.21Z" transform="translate(-297.638 -1.051)" fill="#193028"/>
    </g>
    <g id="Grupo_600" data-name="Grupo 600">
      <path id="Trazado_9773" data-name="Trazado 9773" d="M85.336,66.764H95.4L75.856,1.051H58.709L39.16,66.764H49.22l6.111-21.545H79.224ZM57.74,36.77,67.28,3.122,76.826,36.77Z" transform="translate(13.299 0.357)" fill="#193028"/>
      <path id="Trazado_9774" data-name="Trazado 9774" d="M0,1.051V66.764H40.273V57.752H9.669v-19.9h21.97V29.219H9.669V10.063h30.6V1.051Z" transform="translate(0 0.357)" fill="#193028"/>
      <path id="Trazado_9775" data-name="Trazado 9775" d="M153.892,10.063H133.8V1.051h49.661v9.012h-19.9v56.7h-9.669Z" transform="translate(45.439 0.357)" fill="#193028"/>
      <path id="Trazado_9776" data-name="Trazado 9776" d="M182.03,1.051H191.7V29.267h26.942V1.051h9.668V66.764h-9.668V37.81H191.7V66.764H182.03Z" transform="translate(61.818 0.357)" fill="#193028"/>
      <path id="Trazado_9777" data-name="Trazado 9777" d="M279.874,0c13.115,0,23.041,9.2,24.681,23.093l-9.2,1.6c-1.729-10.233-7.011-15.673-15.482-15.673-11.02,0-17.761,9.576-17.761,25.253,0,15.771,6.741,25.253,17.761,25.253,9.017,0,14.3-5.819,15.482-17.085l9.377,1.407c-.638,7.6-3.187,13.707-7.651,18.118s-10.2,6.571-17.213,6.571c-16.485,0-27.14-13.518-27.14-34.264C252.734,13.706,263.573,0,279.874,0" transform="translate(85.829 0)" fill="#193028"/>
      <path id="Trazado_9778" data-name="Trazado 9778" d="M252.492,1.051h-10.06L226.49,66.764h10.059Z" transform="translate(76.917 0.357)" fill="#193028"/>
      <path id="Trazado_9792" data-name="Trazado 9792" d="M138.007,21.047c0-12.484-8.26-19.994-22.059-19.994H91.165V66.761h9.668V41.141h11.546s.393.023,1.072.021l11.5,25.6h10.059l-11.949-26.91C130.1,37.892,138,33.024,138,21.052m-37.169-10.99h14.174c8.918,0,13.33,3.66,13.33,10.985,0,7.234-4.6,11.171-13.33,11.171H100.833Z" transform="translate(30.96 0.358)" fill="#193028"/>
      <path id="Trazado_9793" data-name="Trazado 9793" d="M306.746,6.237a6.384,6.384,0,1,1,0-.052v.052m-.78,0a5.458,5.458,0,1,0-5.458,5.458,5.458,5.458,0,0,0,5.458-5.458m-2.859,3.206h-.867l-1.381-2.6h-1.646v2.6h-.78V3.032h2.253a1.985,1.985,0,0,1,2.159,1.792c0,.038.005.076.007.114A1.9,1.9,0,0,1,301.64,6.67Zm-3.9-3.38h1.474c.954,0,1.385-.434,1.385-1.127s-.433-1.127-1.385-1.127h-1.474Z" transform="translate(99.937 0)" fill="#193028"/>
    </g>
  </g>
</svg>