<?xml version="1.0" encoding="utf-8"?>
<svg xmlns="http://www.w3.org/2000/svg" width="142" height="25" viewBox="0 0 142 25" fill="none">
<path d="M60.6 17.7778L61.4778 18.0444L61.0333 22.5333C59.3111 23.7333 57.1222 24.4333 54.5667 24.4333C47.9444 24.4333 43.8111 19.7333 43.8111 13.9333C43.8111 8.13333 47.9444 3.43333 54.5667 3.43333C57.1778 3.43333 59.3778 4.14444 61.1333 5.41111L61.5667 9.75556L60.5778 10.0556C59.6444 7.22222 57.6 5.27778 54.5556 5.27778C50.2667 5.27778 47.9556 9.15556 47.9556 13.9444C47.9556 18.7333 50.2667 22.6111 54.5556 22.6111C57.6 22.6111 59.6556 20.6444 60.5889 17.7889L60.6 17.7778ZM41.2556 1.21111V0C41.2556 0 40.8667 0.155556 37.9111 0.155556C34.9556 0.155556 34.5667 0 34.5667 0V1.21111C34.5667 1.21111 34.9556 1.05556 37.9111 1.05556C40.8667 1.05556 41.2556 1.21111 41.2556 1.21111ZM35.7222 21.9444V15.4H37.2556L41.3556 15.8C41.3556 15.8 41.2778 14.4556 41.2778 13.9222C41.2778 13.3778 41.3556 12.0333 41.3556 12.0333L37.2556 12.4444H35.7222V5.9C37.3556 5.9 39.7444 5.94444 40.3111 6C41.0778 6.15556 44.8222 7.11111 44.8222 7.11111L44.4111 3.82222H31C31 3.82222 31.7111 4.98889 31.7111 13.9222C31.7111 22.8556 31 24.0222 31 24.0222H44.4111L44.8222 20.7333C44.8222 20.7333 41.0667 21.6889 40.3111 21.8444C39.7556 21.9 37.3667 21.9556 35.7222 21.9444ZM107.411 18.2889C107.411 22.1444 104.611 24.4333 99.9222 24.4333C98 24.4333 95.9445 24.0444 94.1445 23.3111L93.9 23.2333L93.4111 19.1222C91.7222 22.3111 88.3778 24.4556 83.9 24.4556C80.9 24.4556 78.4222 23.4889 76.5889 21.9L76.3222 24.0444H62.9111C62.9111 24.0444 63.6222 22.8778 63.6222 13.9444C63.6222 5.01111 62.9111 3.84444 62.9111 3.84444H68.3444C68.3444 3.84444 67.6333 5.01111 67.6333 13.9444C67.6333 18.0333 67.7889 20.5 67.9444 21.9667C69.5778 21.9667 71.6667 21.9222 72.2222 21.8667C72.7222 21.7667 74.5222 21.3111 75.7 21.0222C74.0556 19.1556 73.1444 16.6778 73.1444 13.9667C73.1444 8.16667 77.2778 3.46667 83.9 3.46667C88.8556 3.46667 92.4222 6.1 93.9 9.86667C93.8778 9.63333 93.8556 9.38889 93.8556 9.13333C93.8556 5.58889 96.4889 3.47778 100.9 3.47778C102.378 3.47778 103.867 3.72222 105.3 4.21111L105.733 8.6L104.744 8.9C103.167 6.12222 101.556 4.76667 99.8222 4.76667C98.3111 4.76667 97.3444 5.73333 97.3444 7.22222C97.3444 8.56667 98.2222 9.62222 100.1 10.5444L101.856 11.4222C104.533 12.7222 107.4 14.4333 107.4 18.3222L107.411 18.2889ZM90.5111 13.9444C90.5111 9.15556 88.2 5.27778 83.9111 5.27778C79.6222 5.27778 77.3111 9.15556 77.3111 13.9444C77.3111 18.7333 79.6222 22.6111 83.9111 22.6111C88.2 22.6111 90.5111 18.7333 90.5111 13.9444ZM103.733 20.1222C103.733 18.0667 102.144 16.9111 99.5778 15.7111C97.6889 14.7889 95.4556 13.7111 94.4333 11.6444C94.5778 12.3778 94.6556 13.1444 94.6556 13.9333C94.6556 15.4889 94.3556 16.9556 93.8 18.2889L94.2111 18.9556C96.2556 22.0333 98.6111 23.1556 100.667 23.1556C102.189 23.1556 103.733 22.2111 103.733 20.1111V20.1222ZM110.867 4.48889C110.778 4.27778 110.656 4.1 110.511 3.94444C110.356 3.78889 110.178 3.66667 109.967 3.57778C109.756 3.48889 109.533 3.44444 109.289 3.44444C109.044 3.44444 108.822 3.48889 108.611 3.57778C108.4 3.66667 108.222 3.78889 108.067 3.94444C107.911 4.1 107.789 4.27778 107.711 4.48889C107.622 4.7 107.578 4.92222 107.578 5.15556C107.578 5.38889 107.622 5.62222 107.711 5.82222C107.8 6.03333 107.922 6.21111 108.067 6.35556C108.222 6.51111 108.4 6.63333 108.611 6.71111C108.822 6.78889 109.044 6.84444 109.289 6.84444C109.533 6.84444 109.756 6.8 109.967 6.71111C110.178 6.62222 110.356 6.5 110.511 6.35556C110.667 6.2 110.789 6.02222 110.867 5.82222C110.956 5.61111 111 5.38889 111 5.15556C111 4.92222 110.956 4.7 110.867 4.48889ZM110.622 5.73333C110.544 5.91111 110.444 6.06667 110.322 6.2C110.189 6.33333 110.044 6.43333 109.867 6.51111C109.689 6.58889 109.5 6.62222 109.3 6.62222C109.1 6.62222 108.9 6.58889 108.722 6.51111C108.544 6.43333 108.4 6.33333 108.267 6.2C108.133 6.06667 108.033 5.91111 107.967 5.73333C107.9 5.55555 107.856 5.36667 107.856 5.15556C107.856 4.94444 107.889 4.75556 107.967 4.57778C108.033 4.4 108.133 4.24444 108.267 4.11111C108.4 3.97778 108.544 3.87778 108.722 3.8C108.9 3.72222 109.089 3.68889 109.3 3.68889C109.511 3.68889 109.7 3.72222 109.867 3.8C110.044 3.87778 110.189 3.97778 110.322 4.11111C110.456 4.24444 110.556 4.4 110.622 4.57778C110.7 4.75556 110.733 4.94444 110.733 5.15556C110.733 5.36667 110.7 5.55555 110.622 5.73333ZM109.767 5.21111C109.822 5.18889 109.878 5.15556 109.922 5.11111C109.967 5.06667 110 5.01111 110.033 4.94444C110.056 4.87778 110.067 4.8 110.067 4.72222C110.067 4.54444 110.011 4.41111 109.911 4.32222C109.811 4.23333 109.644 4.17778 109.422 4.17778H108.667V6.14444H108.911V5.26667H109.322L109.878 6.14444H110.167L109.578 5.26667C109.644 5.25556 109.711 5.23333 109.767 5.21111ZM109.244 5.06667H108.922V4.38889H109.367C109.422 4.38889 109.489 4.38889 109.544 4.4C109.6 4.4 109.644 4.42222 109.689 4.45556C109.733 4.47778 109.767 4.51111 109.789 4.55556C109.811 4.6 109.822 4.65556 109.822 4.72222C109.822 4.8 109.8 4.86667 109.767 4.92222C109.733 4.96667 109.689 5 109.633 5.02222C109.578 5.04444 109.511 5.05556 109.444 5.06667C109.378 5.06667 109.3 5.06667 109.222 5.06667H109.244Z" fill="white"/>
</svg>